solid OpenSCAD_Model
  facet normal -1 0 0
    outer loop
      vertex 15 -27.5 -8
      vertex 15 27.5 8
      vertex 15 27.5 -8
    endloop
  endfacet
  facet normal -1 -0 0
    outer loop
      vertex 15 27.5 8
      vertex 15 -27.5 -8
      vertex 15 -27.5 8
    endloop
  endfacet
  facet normal 0 0 1
    outer loop
      vertex 25 27.5 8
      vertex 24.25 26.25 8
      vertex 25 -27.5 8
    endloop
  endfacet
  facet normal 0 0 1
    outer loop
      vertex 25 27.5 8
      vertex 15.75 26.25 8
      vertex 24.25 26.25 8
    endloop
  endfacet
  facet normal 0 0 1
    outer loop
      vertex 15.75 26.25 8
      vertex 15 27.5 8
      vertex 15.75 -26.25 8
    endloop
  endfacet
  facet normal -0 0 1
    outer loop
      vertex 15 27.5 8
      vertex 15.75 26.25 8
      vertex 25 27.5 8
    endloop
  endfacet
  facet normal -0 0 1
    outer loop
      vertex 24.25 -26.25 8
      vertex 25 -27.5 8
      vertex 24.25 26.25 8
    endloop
  endfacet
  facet normal -0 0 1
    outer loop
      vertex 15.75 -26.25 8
      vertex 25 -27.5 8
      vertex 24.25 -26.25 8
    endloop
  endfacet
  facet normal 0 0 1
    outer loop
      vertex 15.75 -26.25 8
      vertex 15 -27.5 8
      vertex 25 -27.5 8
    endloop
  endfacet
  facet normal 0 0 1
    outer loop
      vertex 15 -27.5 8
      vertex 15.75 -26.25 8
      vertex 15 27.5 8
    endloop
  endfacet
  facet normal 1 -0 0
    outer loop
      vertex 25 -27.5 8
      vertex 25 27.5 -8
      vertex 25 27.5 8
    endloop
  endfacet
  facet normal 1 0 0
    outer loop
      vertex 25 27.5 -8
      vertex 25 -27.5 8
      vertex 25 -27.5 -8
    endloop
  endfacet
  facet normal 0 1 -0
    outer loop
      vertex 25 27.5 -8
      vertex 15 27.5 8
      vertex 25 27.5 8
    endloop
  endfacet
  facet normal 0 1 0
    outer loop
      vertex 15 27.5 8
      vertex 25 27.5 -8
      vertex 15 27.5 -8
    endloop
  endfacet
  facet normal 0 0 -1
    outer loop
      vertex 25 -27.5 -8
      vertex 24.25 -26.25 -8
      vertex 25 27.5 -8
    endloop
  endfacet
  facet normal 0 0 -1
    outer loop
      vertex 25 -27.5 -8
      vertex 15.75 -26.25 -8
      vertex 24.25 -26.25 -8
    endloop
  endfacet
  facet normal -0 0 -1
    outer loop
      vertex 15.75 -26.25 -8
      vertex 15 -27.5 -8
      vertex 15.75 26.25 -8
    endloop
  endfacet
  facet normal 0 0 -1
    outer loop
      vertex 15 -27.5 -8
      vertex 15.75 -26.25 -8
      vertex 25 -27.5 -8
    endloop
  endfacet
  facet normal 0 0 -1
    outer loop
      vertex 24.25 26.25 -8
      vertex 25 27.5 -8
      vertex 24.25 -26.25 -8
    endloop
  endfacet
  facet normal 0 0 -1
    outer loop
      vertex 15.75 26.25 -8
      vertex 25 27.5 -8
      vertex 24.25 26.25 -8
    endloop
  endfacet
  facet normal 0 0 -1
    outer loop
      vertex 15.75 26.25 -8
      vertex 15 27.5 -8
      vertex 25 27.5 -8
    endloop
  endfacet
  facet normal 0 0 -1
    outer loop
      vertex 15 27.5 -8
      vertex 15.75 26.25 -8
      vertex 15 -27.5 -8
    endloop
  endfacet
  facet normal 0 -1 0
    outer loop
      vertex 15 -27.5 -8
      vertex 25 -27.5 8
      vertex 15 -27.5 8
    endloop
  endfacet
  facet normal 0 -1 -0
    outer loop
      vertex 25 -27.5 8
      vertex 15 -27.5 -8
      vertex 25 -27.5 -8
    endloop
  endfacet
  facet normal 1 -0 0
    outer loop
      vertex 15.75 -26.25 8
      vertex 15.75 26.25 -8
      vertex 15.75 26.25 8
    endloop
  endfacet
  facet normal 1 0 0
    outer loop
      vertex 15.75 26.25 -8
      vertex 15.75 -26.25 8
      vertex 15.75 -26.25 -8
    endloop
  endfacet
  facet normal -1 0 0
    outer loop
      vertex 24.25 -26.25 -8
      vertex 24.25 26.25 8
      vertex 24.25 26.25 -8
    endloop
  endfacet
  facet normal -1 -0 0
    outer loop
      vertex 24.25 26.25 8
      vertex 24.25 -26.25 -8
      vertex 24.25 -26.25 8
    endloop
  endfacet
  facet normal 0 1 -0
    outer loop
      vertex 24.25 -26.25 -8
      vertex 15.75 -26.25 8
      vertex 24.25 -26.25 8
    endloop
  endfacet
  facet normal 0 1 0
    outer loop
      vertex 15.75 -26.25 8
      vertex 24.25 -26.25 -8
      vertex 15.75 -26.25 -8
    endloop
  endfacet
  facet normal 0 -1 0
    outer loop
      vertex 15.75 26.25 -8
      vertex 24.25 26.25 8
      vertex 15.75 26.25 8
    endloop
  endfacet
  facet normal 0 -1 -0
    outer loop
      vertex 24.25 26.25 8
      vertex 15.75 26.25 -8
      vertex 24.25 26.25 -8
    endloop
  endfacet
endsolid OpenSCAD_Model
