solid OpenSCAD_Model
  facet normal -1 0 0
    outer loop
      vertex 0 27 -17
      vertex 0 0 -17
      vertex 0 27 0
    endloop
  endfacet
  facet normal -1 0 0
    outer loop
      vertex 0 54.3778 22
      vertex 0 55 38
      vertex 0 55 22
    endloop
  endfacet
  facet normal -1 0 0
    outer loop
      vertex 0 0 38
      vertex 0 54.3778 22
      vertex 0 27 0
    endloop
  endfacet
  facet normal -1 0 0
    outer loop
      vertex 0 0 38
      vertex 0 27 0
      vertex 0 0 -17
    endloop
  endfacet
  facet normal -1 0 0
    outer loop
      vertex 0 54.3778 22
      vertex 0 0 38
      vertex 0 55 38
    endloop
  endfacet
  facet normal 0 0 1
    outer loop
      vertex 10 55 38
      vertex 9.25 53.75 38
      vertex 10 0 38
    endloop
  endfacet
  facet normal 0 0 1
    outer loop
      vertex 10 55 38
      vertex 0.75 53.75 38
      vertex 9.25 53.75 38
    endloop
  endfacet
  facet normal 0 0 1
    outer loop
      vertex 0.75 53.75 38
      vertex 0 55 38
      vertex 0.75 1.25 38
    endloop
  endfacet
  facet normal -0 0 1
    outer loop
      vertex 0 55 38
      vertex 0.75 53.75 38
      vertex 10 55 38
    endloop
  endfacet
  facet normal -0 0 1
    outer loop
      vertex 9.25 1.25 38
      vertex 10 0 38
      vertex 9.25 53.75 38
    endloop
  endfacet
  facet normal -0 0 1
    outer loop
      vertex 0.75 1.25 38
      vertex 10 0 38
      vertex 9.25 1.25 38
    endloop
  endfacet
  facet normal 0 0 1
    outer loop
      vertex 0.75 1.25 38
      vertex 0 0 38
      vertex 10 0 38
    endloop
  endfacet
  facet normal 0 0 1
    outer loop
      vertex 0 0 38
      vertex 0.75 1.25 38
      vertex 0 55 38
    endloop
  endfacet
  facet normal 1 0 0
    outer loop
      vertex 10 55 22.5
      vertex 10 54.3778 22
      vertex 10 55 22
    endloop
  endfacet
  facet normal 1 -0 0
    outer loop
      vertex 10 0 38
      vertex 10 55 22.6
      vertex 10 55 38
    endloop
  endfacet
  facet normal 1 0 0
    outer loop
      vertex 10 55 22.6
      vertex 10 0 38
      vertex 10 0 22.6
    endloop
  endfacet
  facet normal 0 1 -0
    outer loop
      vertex 10 55 22.6
      vertex 0 55 38
      vertex 10 55 38
    endloop
  endfacet
  facet normal 0 1 0
    outer loop
      vertex 0 55 22
      vertex 10 55 22.6
      vertex 10 55 22.5
    endloop
  endfacet
  facet normal 0 1 0
    outer loop
      vertex 0 55 22
      vertex 10 55 22.5
      vertex 10 55 22
    endloop
  endfacet
  facet normal 0 1 0
    outer loop
      vertex 10 55 22.6
      vertex 0 55 22
      vertex 0 55 38
    endloop
  endfacet
  facet normal 0 0 -1
    outer loop
      vertex 0 54.3778 22
      vertex 10 55 22
      vertex 10 54.3778 22
    endloop
  endfacet
  facet normal -0 0 -1
    outer loop
      vertex 10 55 22
      vertex 0 54.3778 22
      vertex 0 55 22
    endloop
  endfacet
  facet normal 0 0 -1
    outer loop
      vertex 9.25 1.32067 22
      vertex 9.33111 52.9327 22
      vertex 9.33111 1.32067 22
    endloop
  endfacet
  facet normal -0 0 -1
    outer loop
      vertex 9.33111 52.9327 22
      vertex 9.25 1.32067 22
      vertex 9.25 52.9327 22
    endloop
  endfacet
  facet normal 0 -1 0
    outer loop
      vertex 0 0 38
      vertex 10 0 22.6
      vertex 10 0 38
    endloop
  endfacet
  facet normal 0 -1 0
    outer loop
      vertex 0 0 -17
      vertex 10 0 22.6
      vertex 0 0 38
    endloop
  endfacet
  facet normal 0 -1 -0
    outer loop
      vertex 10 0 22.6
      vertex 0 0 -17
      vertex 22 0 0.0999994
    endloop
  endfacet
  facet normal 0 -1 -0
    outer loop
      vertex 22 0 0.0999994
      vertex 0 0 -17
      vertex 22 0 -17
    endloop
  endfacet
  facet normal 1 -0 0
    outer loop
      vertex 0.75 1.25 38
      vertex 0.75 53.75 22.6
      vertex 0.75 53.75 38
    endloop
  endfacet
  facet normal 1 0 0
    outer loop
      vertex 0.75 53.75 22.6
      vertex 0.75 1.25 38
      vertex 0.75 1.25 22.6
    endloop
  endfacet
  facet normal -1 0 0
    outer loop
      vertex 9.25 1.25 22.6
      vertex 9.25 53.75 38
      vertex 9.25 53.75 22.6
    endloop
  endfacet
  facet normal -1 -0 0
    outer loop
      vertex 9.25 53.75 38
      vertex 9.25 1.25 22.6
      vertex 9.25 1.25 38
    endloop
  endfacet
  facet normal -1 0 0
    outer loop
      vertex 9.25 1.3 22.1755
      vertex 9.25 52.9327 22
      vertex 9.25 1.32067 22
    endloop
  endfacet
  facet normal -1 0 0
    outer loop
      vertex 9.25 52.9327 22
      vertex 9.25 1.3 22.1755
      vertex 9.25 53.1717 22.1755
    endloop
  endfacet
  facet normal 0 -1 0
    outer loop
      vertex 0.9 53.75 22.6
      vertex 0.75 53.75 38
      vertex 0.75 53.75 22.6
    endloop
  endfacet
  facet normal 0 -1 0
    outer loop
      vertex 0.75 53.75 38
      vertex 0.9 53.75 22.6
      vertex 9.25 53.75 38
    endloop
  endfacet
  facet normal 0 -1 0
    outer loop
      vertex 9.1 53.75 22.6
      vertex 9.25 53.75 38
      vertex 0.9 53.75 22.6
    endloop
  endfacet
  facet normal 0 -1 -0
    outer loop
      vertex 9.25 53.75 38
      vertex 9.1 53.75 22.6
      vertex 9.25 53.75 22.6
    endloop
  endfacet
  facet normal 0 1 0
    outer loop
      vertex 9.1 1.25 22.6
      vertex 9.25 1.25 38
      vertex 9.25 1.25 22.6
    endloop
  endfacet
  facet normal 0 1 0
    outer loop
      vertex 9.25 1.25 38
      vertex 9.1 1.25 22.6
      vertex 0.75 1.25 38
    endloop
  endfacet
  facet normal 0 1 -0
    outer loop
      vertex 0.9 1.25 22.6
      vertex 0.75 1.25 38
      vertex 9.1 1.25 22.6
    endloop
  endfacet
  facet normal 0 1 0
    outer loop
      vertex 0.75 1.25 38
      vertex 0.9 1.25 22.6
      vertex 0.75 1.25 22.6
    endloop
  endfacet
  facet normal 0 0 -1
    outer loop
      vertex 7 23.1 0
      vertex 15 27 0
      vertex 15 23.1 0
    endloop
  endfacet
  facet normal -0 0 -1
    outer loop
      vertex 15 27 0
      vertex 7 23.1 0
      vertex 7 27 0
    endloop
  endfacet
  facet normal 1 -0 0
    outer loop
      vertex 22 0 0.0999994
      vertex 22 27 0
      vertex 22 27 0.0999994
    endloop
  endfacet
  facet normal 1 0 0
    outer loop
      vertex 22 27 0
      vertex 22 0 0.0999994
      vertex 22 27 -17
    endloop
  endfacet
  facet normal 1 0 0
    outer loop
      vertex 22 27 -17
      vertex 22 0 0.0999994
      vertex 22 0 -17
    endloop
  endfacet
  facet normal 0 1 0
    outer loop
      vertex 22 27 0
      vertex 17 27 -9
      vertex 15 27 0
    endloop
  endfacet
  facet normal 0 1 -0
    outer loop
      vertex 22 27 -17
      vertex 17 27 -9
      vertex 22 27 0
    endloop
  endfacet
  facet normal 0 1 0
    outer loop
      vertex 17 27 -9
      vertex 22 27 -17
      vertex 17 27 -17
    endloop
  endfacet
  facet normal 0 1 0
    outer loop
      vertex 15 27 0
      vertex 17 27 -9
      vertex 15 27 -9
    endloop
  endfacet
  facet normal 0 1 0
    outer loop
      vertex 5 27 -9
      vertex 7 27 0
      vertex 7 27 -9
    endloop
  endfacet
  facet normal 0 1 0
    outer loop
      vertex 7 27 0
      vertex 5 27 -9
      vertex 0 27 0
    endloop
  endfacet
  facet normal 0 1 0
    outer loop
      vertex 0 27 -17
      vertex 5 27 -9
      vertex 5 27 -17
    endloop
  endfacet
  facet normal 0 1 0
    outer loop
      vertex 5 27 -9
      vertex 0 27 -17
      vertex 0 27 0
    endloop
  endfacet
  facet normal 0 0 -1
    outer loop
      vertex 22 0 -17
      vertex 19.5 3.9 -17
      vertex 22 27 -17
    endloop
  endfacet
  facet normal 0 0 -1
    outer loop
      vertex 22 0 -17
      vertex 2.5 3.9 -17
      vertex 19.5 3.9 -17
    endloop
  endfacet
  facet normal -0 0 -1
    outer loop
      vertex 2.5 3.9 -17
      vertex 0 0 -17
      vertex 2.5 23.1 -17
    endloop
  endfacet
  facet normal 0 0 -1
    outer loop
      vertex 0 0 -17
      vertex 2.5 3.9 -17
      vertex 22 0 -17
    endloop
  endfacet
  facet normal 0 0 -1
    outer loop
      vertex 19.5 23.1 -17
      vertex 22 27 -17
      vertex 19.5 3.9 -17
    endloop
  endfacet
  facet normal 0 0 -1
    outer loop
      vertex 19.5 23.1 -17
      vertex 17 27 -17
      vertex 22 27 -17
    endloop
  endfacet
  facet normal 0 0 -1
    outer loop
      vertex 15 23.1 -17
      vertex 17 27 -17
      vertex 19.5 23.1 -17
    endloop
  endfacet
  facet normal 0 0 -1
    outer loop
      vertex 15 43.5 -17
      vertex 17 27 -17
      vertex 15 23.1 -17
    endloop
  endfacet
  facet normal 0 0 -1
    outer loop
      vertex 17 27 -17
      vertex 15 43.5 -17
      vertex 17 43.5 -17
    endloop
  endfacet
  facet normal 0 0 -1
    outer loop
      vertex 7 23.1 -17
      vertex 5 27 -17
      vertex 7 43.5 -17
    endloop
  endfacet
  facet normal 0 0 -1
    outer loop
      vertex 2.5 23.1 -17
      vertex 5 27 -17
      vertex 7 23.1 -17
    endloop
  endfacet
  facet normal 0 0 -1
    outer loop
      vertex 2.5 23.1 -17
      vertex 0 27 -17
      vertex 5 27 -17
    endloop
  endfacet
  facet normal 0 0 -1
    outer loop
      vertex 0 27 -17
      vertex 2.5 23.1 -17
      vertex 0 0 -17
    endloop
  endfacet
  facet normal -0 0 -1
    outer loop
      vertex 7 43.5 -17
      vertex 5 27 -17
      vertex 5 43.5 -17
    endloop
  endfacet
  facet normal 1 -0 0
    outer loop
      vertex 2.5 3.9 0
      vertex 2.5 23.1 -17
      vertex 2.5 23.1 0
    endloop
  endfacet
  facet normal 1 0 0
    outer loop
      vertex 2.5 23.1 -17
      vertex 2.5 3.9 0
      vertex 2.5 3.9 -17
    endloop
  endfacet
  facet normal -1 0 0
    outer loop
      vertex 19.5 3.9 -17
      vertex 19.5 23.1 0
      vertex 19.5 23.1 -17
    endloop
  endfacet
  facet normal -1 -0 0
    outer loop
      vertex 19.5 23.1 0
      vertex 19.5 3.9 -17
      vertex 19.5 3.9 0
    endloop
  endfacet
  facet normal 0 -1 0
    outer loop
      vertex 2.5 23.1 -17
      vertex 7 23.1 0
      vertex 2.5 23.1 0
    endloop
  endfacet
  facet normal 0 -1 -0
    outer loop
      vertex 7 23.1 0
      vertex 2.5 23.1 -17
      vertex 7 23.1 -17
    endloop
  endfacet
  facet normal 0 -1 0
    outer loop
      vertex 15 23.1 -17
      vertex 19.5 23.1 0
      vertex 15 23.1 0
    endloop
  endfacet
  facet normal 0 -1 -0
    outer loop
      vertex 19.5 23.1 0
      vertex 15 23.1 -17
      vertex 19.5 23.1 -17
    endloop
  endfacet
  facet normal 0 1 -0
    outer loop
      vertex 19.5 3.9 -17
      vertex 2.5 3.9 0
      vertex 19.5 3.9 0
    endloop
  endfacet
  facet normal 0 1 0
    outer loop
      vertex 2.5 3.9 0
      vertex 19.5 3.9 -17
      vertex 2.5 3.9 -17
    endloop
  endfacet
  facet normal 1 0 0
    outer loop
      vertex 7 27 0
      vertex 7 23.1 0
      vertex 7 27 -9
    endloop
  endfacet
  facet normal 1 -0 0
    outer loop
      vertex 7 27 -9
      vertex 7 43.5 -17
      vertex 7 43.5 -9
    endloop
  endfacet
  facet normal 1 0 0
    outer loop
      vertex 7 27 -9
      vertex 7 23.1 -17
      vertex 7 43.5 -17
    endloop
  endfacet
  facet normal 1 0 0
    outer loop
      vertex 7 23.1 -17
      vertex 7 27 -9
      vertex 7 23.1 0
    endloop
  endfacet
  facet normal -1 0 0
    outer loop
      vertex 15 43.5 -17
      vertex 15 27 -9
      vertex 15 43.5 -9
    endloop
  endfacet
  facet normal -1 0 0
    outer loop
      vertex 15 23.1 -17
      vertex 15 27 -9
      vertex 15 43.5 -17
    endloop
  endfacet
  facet normal -1 0 0
    outer loop
      vertex 15 23.1 0
      vertex 15 27 -9
      vertex 15 23.1 -17
    endloop
  endfacet
  facet normal -1 0 0
    outer loop
      vertex 15 27 -9
      vertex 15 23.1 0
      vertex 15 27 0
    endloop
  endfacet
  facet normal -1 0 0
    outer loop
      vertex 5 27 -17
      vertex 5 43.5 -9
      vertex 5 43.5 -17
    endloop
  endfacet
  facet normal -1 -0 0
    outer loop
      vertex 5 43.5 -9
      vertex 5 27 -17
      vertex 5 27 -9
    endloop
  endfacet
  facet normal -0 0 1
    outer loop
      vertex 5 43.5 -9
      vertex 7 27 -9
      vertex 7 43.5 -9
    endloop
  endfacet
  facet normal 0 0 1
    outer loop
      vertex 7 27 -9
      vertex 5 43.5 -9
      vertex 5 27 -9
    endloop
  endfacet
  facet normal -0 0 1
    outer loop
      vertex 15 43.5 -9
      vertex 17 27 -9
      vertex 17 43.5 -9
    endloop
  endfacet
  facet normal 0 0 1
    outer loop
      vertex 17 27 -9
      vertex 15 43.5 -9
      vertex 15 27 -9
    endloop
  endfacet
  facet normal 1 -0 0
    outer loop
      vertex 17 27 -9
      vertex 17 43.5 -17
      vertex 17 43.5 -9
    endloop
  endfacet
  facet normal 1 0 0
    outer loop
      vertex 17 43.5 -17
      vertex 17 27 -9
      vertex 17 27 -17
    endloop
  endfacet
  facet normal 0 1 -0
    outer loop
      vertex 17 43.5 -17
      vertex 15 43.5 -9
      vertex 17 43.5 -9
    endloop
  endfacet
  facet normal 0 1 0
    outer loop
      vertex 15 43.5 -9
      vertex 17 43.5 -17
      vertex 15 43.5 -17
    endloop
  endfacet
  facet normal 0 1 -0
    outer loop
      vertex 7 43.5 -17
      vertex 5 43.5 -9
      vertex 7 43.5 -9
    endloop
  endfacet
  facet normal 0 1 0
    outer loop
      vertex 5 43.5 -9
      vertex 7 43.5 -17
      vertex 5 43.5 -17
    endloop
  endfacet
  facet normal -0 0 1
    outer loop
      vertex 0.75 53.75 22.6
      vertex 0.9 1.25 22.6
      vertex 0.9 53.75 22.6
    endloop
  endfacet
  facet normal 0 0 1
    outer loop
      vertex 0.9 1.25 22.6
      vertex 0.75 53.75 22.6
      vertex 0.75 1.25 22.6
    endloop
  endfacet
  facet normal 0 0.626391 -0.779509
    outer loop
      vertex 7 27 0
      vertex 10 54.3778 22
      vertex 15 27 0
    endloop
  endfacet
  facet normal 0 0.626391 -0.779509
    outer loop
      vertex 0 54.3778 22
      vertex 7 27 0
      vertex 0 27 0
    endloop
  endfacet
  facet normal 0 0.626391 -0.779509
    outer loop
      vertex 7 27 0
      vertex 0 54.3778 22
      vertex 10 54.3778 22
    endloop
  endfacet
  facet normal 0 0.626391 -0.779509
    outer loop
      vertex 10 54.3778 22
      vertex 22 27 0
      vertex 15 27 0
    endloop
  endfacet
  facet normal -1.59299e-006 0.626391 -0.779509
    outer loop
      vertex 22 27 0
      vertex 10 54.3778 22
      vertex 10 55 22.5
    endloop
  endfacet
  facet normal 0.997481 -0 0.070932
    outer loop
      vertex 0.9 1.25 22.6
      vertex 2.5 23.1 0.0999994
      vertex 0.9 53.75 22.6
    endloop
  endfacet
  facet normal 0.997481 0 0.070932
    outer loop
      vertex 2.5 23.1 0.0999994
      vertex 0.9 1.25 22.6
      vertex 2.5 3.9 0.0999994
    endloop
  endfacet
  facet normal 1 0 0
    outer loop
      vertex 2.5 23.1 0.0999994
      vertex 2.5 3.9 0
      vertex 2.5 23.1 0
    endloop
  endfacet
  facet normal 1 -0 0
    outer loop
      vertex 2.5 3.9 0.0999994
      vertex 2.5 3.9 0
      vertex 2.5 23.1 0.0999994
    endloop
  endfacet
  facet normal -0.907721 -0 -0.419575
    outer loop
      vertex 19.5 23.1 0
      vertex 19.5 3.9 0
      vertex 19.4538 23.1 0.0999994
    endloop
  endfacet
  facet normal -0.907721 0 -0.419575
    outer loop
      vertex 19.4538 3.9 0.0999994
      vertex 19.4538 23.1 0.0999994
      vertex 19.5 3.9 0
    endloop
  endfacet
  facet normal -0.907723 0 -0.41957
    outer loop
      vertex 9.33111 1.32067 22
      vertex 19.4538 23.1 0.0999994
      vertex 19.4538 3.9 0.0999994
    endloop
  endfacet
  facet normal -0.907723 0 -0.41957
    outer loop
      vertex 19.4538 23.1 0.0999994
      vertex 9.33111 1.32067 22
      vertex 9.33111 52.9327 22
    endloop
  endfacet
  facet normal -0.907723 0 -0.41957
    outer loop
      vertex 9.1 1.26178 22.5
      vertex 9.25 53.1717 22.1755
      vertex 9.25 1.3 22.1755
    endloop
  endfacet
  facet normal -0.907723 0 -0.41957
    outer loop
      vertex 9.25 53.1717 22.1755
      vertex 9.1 1.26178 22.5
      vertex 9.1 53.6138 22.5
    endloop
  endfacet
  facet normal -0 0 1
    outer loop
      vertex 9.1 53.75 22.6
      vertex 9.25 1.25 22.6
      vertex 9.25 53.75 22.6
    endloop
  endfacet
  facet normal 0 0 1
    outer loop
      vertex 9.25 1.25 22.6
      vertex 9.1 53.75 22.6
      vertex 9.1 1.25 22.6
    endloop
  endfacet
  facet normal 0.882353 -0 0.470588
    outer loop
      vertex 10 0 22.6
      vertex 22 27 0.0999994
      vertex 10 55 22.6
    endloop
  endfacet
  facet normal 0.882353 0 0.470588
    outer loop
      vertex 22 27 0.0999994
      vertex 10 0 22.6
      vertex 22 0 0.0999994
    endloop
  endfacet
  facet normal -1 0 0
    outer loop
      vertex 9.1 1.25 22.6
      vertex 9.1 53.6138 22.5
      vertex 9.1 1.26178 22.5
    endloop
  endfacet
  facet normal -1 0 0
    outer loop
      vertex 9.1 53.6138 22.5
      vertex 9.1 1.25 22.6
      vertex 9.1 53.75 22.6
    endloop
  endfacet
  facet normal 0.919145 0.393919 0
    outer loop
      vertex 22 27 0.0999994
      vertex 10 55 22.5
      vertex 10 55 22.6
    endloop
  endfacet
  facet normal 0.919145 0.393919 0
    outer loop
      vertex 10 55 22.5
      vertex 22 27 0.0999994
      vertex 22 27 0
    endloop
  endfacet
  facet normal 0 1 0
    outer loop
      vertex 2.5 3.9 0
      vertex 19.4538 3.9 0.0999994
      vertex 19.5 3.9 0
    endloop
  endfacet
  facet normal 0 1 0
    outer loop
      vertex 19.4538 3.9 0.0999994
      vertex 2.5 3.9 0
      vertex 2.5 3.9 0.0999994
    endloop
  endfacet
  facet normal -0 0.993136 0.116969
    outer loop
      vertex 2.5 3.9 0.0999994
      vertex 9.33111 1.32067 22
      vertex 19.4538 3.9 0.0999994
    endloop
  endfacet
  facet normal 0 0.993135 0.116971
    outer loop
      vertex 9.1 1.26178 22.5
      vertex 0.9 1.25 22.6
      vertex 9.1 1.25 22.6
    endloop
  endfacet
  facet normal -8.44346e-007 0.993136 0.116969
    outer loop
      vertex 9.25 1.32067 22
      vertex 9.1 1.26178 22.5
      vertex 9.25 1.3 22.1755
    endloop
  endfacet
  facet normal -2.18459e-008 0.993136 0.116969
    outer loop
      vertex 9.1 1.26178 22.5
      vertex 9.25 1.32067 22
      vertex 0.9 1.25 22.6
    endloop
  endfacet
  facet normal 0 0.993136 0.116969
    outer loop
      vertex 9.33111 1.32067 22
      vertex 2.5 3.9 0.0999994
      vertex 9.25 1.32067 22
    endloop
  endfacet
  facet normal -8.58545e-009 0.993136 0.116969
    outer loop
      vertex 9.25 1.32067 22
      vertex 2.5 3.9 0.0999994
      vertex 0.9 1.25 22.6
    endloop
  endfacet
  facet normal 2.06951e-005 -0.59176 0.806114
    outer loop
      vertex 9.25 53.1717 22.1755
      vertex 9.1 53.6138 22.5
      vertex 9.25 52.9327 22
    endloop
  endfacet
  facet normal 0 -0.591763 0.806112
    outer loop
      vertex 2.5 23.1 0.0999994
      vertex 9.33111 52.9327 22
      vertex 9.25 52.9327 22
    endloop
  endfacet
  facet normal 0 -0.591763 0.806112
    outer loop
      vertex 9.33111 52.9327 22
      vertex 2.5 23.1 0.0999994
      vertex 19.4538 23.1 0.0999994
    endloop
  endfacet
  facet normal -2.05815e-007 -0.591763 0.806112
    outer loop
      vertex 0.9 53.75 22.6
      vertex 9.25 52.9327 22
      vertex 9.1 53.6138 22.5
    endloop
  endfacet
  facet normal 0 -0.591755 0.806118
    outer loop
      vertex 0.9 53.75 22.6
      vertex 9.1 53.6138 22.5
      vertex 9.1 53.75 22.6
    endloop
  endfacet
  facet normal -1.34728e-007 -0.591763 0.806112
    outer loop
      vertex 9.25 52.9327 22
      vertex 0.9 53.75 22.6
      vertex 2.5 23.1 0.0999994
    endloop
  endfacet
  facet normal 0 -1 0
    outer loop
      vertex 7 23.1 0
      vertex 2.5 23.1 0.0999994
      vertex 2.5 23.1 0
    endloop
  endfacet
  facet normal 0 -1 0
    outer loop
      vertex 2.5 23.1 0.0999994
      vertex 7 23.1 0
      vertex 19.4538 23.1 0.0999994
    endloop
  endfacet
  facet normal 0 -1 0
    outer loop
      vertex 15 23.1 0
      vertex 19.4538 23.1 0.0999994
      vertex 7 23.1 0
    endloop
  endfacet
  facet normal 0 -1 -0
    outer loop
      vertex 19.4538 23.1 0.0999994
      vertex 15 23.1 0
      vertex 19.5 23.1 0
    endloop
  endfacet
endsolid OpenSCAD_Model
