solid OpenSCAD_Model
  facet normal -1 0 0
    outer loop
      vertex -31 -13.5 -5
      vertex -31 13.5 5
      vertex -31 13.5 -5
    endloop
  endfacet
  facet normal -1 -0 0
    outer loop
      vertex -31 13.5 5
      vertex -31 -13.5 -5
      vertex -31 -13.5 5
    endloop
  endfacet
  facet normal 0 0 1
    outer loop
      vertex -24 13.5 5
      vertex -28.5 9.6 5
      vertex -24 9.6 5
    endloop
  endfacet
  facet normal 0 0 1
    outer loop
      vertex -28.5 9.6 5
      vertex -31 13.5 5
      vertex -28.5 -9.6 5
    endloop
  endfacet
  facet normal -0 0 1
    outer loop
      vertex -31 13.5 5
      vertex -28.5 9.6 5
      vertex -24 13.5 5
    endloop
  endfacet
  facet normal 0 0 1
    outer loop
      vertex -9 13.5 5
      vertex -11.5 9.6 5
      vertex -9 -13.5 5
    endloop
  endfacet
  facet normal -0 0 1
    outer loop
      vertex -16 13.5 5
      vertex -11.5 9.6 5
      vertex -9 13.5 5
    endloop
  endfacet
  facet normal 0 0 1
    outer loop
      vertex -11.5 9.6 5
      vertex -16 13.5 5
      vertex -16 9.6 5
    endloop
  endfacet
  facet normal -0 0 1
    outer loop
      vertex -11.5 -9.6 5
      vertex -9 -13.5 5
      vertex -11.5 9.6 5
    endloop
  endfacet
  facet normal -0 0 1
    outer loop
      vertex -28.5 -9.6 5
      vertex -9 -13.5 5
      vertex -11.5 -9.6 5
    endloop
  endfacet
  facet normal 0 0 1
    outer loop
      vertex -28.5 -9.6 5
      vertex -31 -13.5 5
      vertex -9 -13.5 5
    endloop
  endfacet
  facet normal 0 0 1
    outer loop
      vertex -31 -13.5 5
      vertex -28.5 -9.6 5
      vertex -31 13.5 5
    endloop
  endfacet
  facet normal 1 -0 0
    outer loop
      vertex -9 -13.5 5
      vertex -9 13.5 -5
      vertex -9 13.5 5
    endloop
  endfacet
  facet normal 1 0 0
    outer loop
      vertex -9 13.5 -5
      vertex -9 -13.5 5
      vertex -9 -13.5 -5
    endloop
  endfacet
  facet normal 0 0 -1
    outer loop
      vertex -9 -13.5 -5
      vertex -11.5 -9.6 -5
      vertex -9 13.5 -5
    endloop
  endfacet
  facet normal 0 0 -1
    outer loop
      vertex -9 -13.5 -5
      vertex -28.5 -9.6 -5
      vertex -11.5 -9.6 -5
    endloop
  endfacet
  facet normal -0 0 -1
    outer loop
      vertex -28.5 -9.6 -5
      vertex -31 -13.5 -5
      vertex -28.5 9.6 -5
    endloop
  endfacet
  facet normal 0 0 -1
    outer loop
      vertex -31 -13.5 -5
      vertex -28.5 -9.6 -5
      vertex -9 -13.5 -5
    endloop
  endfacet
  facet normal 0 0 -1
    outer loop
      vertex -11.5 9.6 -5
      vertex -9 13.5 -5
      vertex -11.5 -9.6 -5
    endloop
  endfacet
  facet normal 0 0 -1
    outer loop
      vertex -11.5 9.6 -5
      vertex -14 13.5 -5
      vertex -9 13.5 -5
    endloop
  endfacet
  facet normal 0 0 -1
    outer loop
      vertex -16 9.6 -5
      vertex -14 13.5 -5
      vertex -11.5 9.6 -5
    endloop
  endfacet
  facet normal 0 0 -1
    outer loop
      vertex -16 30 -5
      vertex -14 13.5 -5
      vertex -16 9.6 -5
    endloop
  endfacet
  facet normal 0 0 -1
    outer loop
      vertex -14 13.5 -5
      vertex -16 30 -5
      vertex -14 30 -5
    endloop
  endfacet
  facet normal 0 0 -1
    outer loop
      vertex -24 9.6 -5
      vertex -26 13.5 -5
      vertex -24 30 -5
    endloop
  endfacet
  facet normal 0 0 -1
    outer loop
      vertex -28.5 9.6 -5
      vertex -26 13.5 -5
      vertex -24 9.6 -5
    endloop
  endfacet
  facet normal 0 0 -1
    outer loop
      vertex -28.5 9.6 -5
      vertex -31 13.5 -5
      vertex -26 13.5 -5
    endloop
  endfacet
  facet normal 0 0 -1
    outer loop
      vertex -31 13.5 -5
      vertex -28.5 9.6 -5
      vertex -31 -13.5 -5
    endloop
  endfacet
  facet normal -0 0 -1
    outer loop
      vertex -24 30 -5
      vertex -26 13.5 -5
      vertex -26 30 -5
    endloop
  endfacet
  facet normal 0 -1 0
    outer loop
      vertex -31 -13.5 -5
      vertex -9 -13.5 5
      vertex -31 -13.5 5
    endloop
  endfacet
  facet normal 0 -1 -0
    outer loop
      vertex -9 -13.5 5
      vertex -31 -13.5 -5
      vertex -9 -13.5 -5
    endloop
  endfacet
  facet normal 0 1 0
    outer loop
      vertex -9 13.5 5
      vertex -14 13.5 3
      vertex -16 13.5 5
    endloop
  endfacet
  facet normal 0 1 -0
    outer loop
      vertex -9 13.5 -5
      vertex -14 13.5 3
      vertex -9 13.5 5
    endloop
  endfacet
  facet normal 0 1 0
    outer loop
      vertex -14 13.5 3
      vertex -9 13.5 -5
      vertex -14 13.5 -5
    endloop
  endfacet
  facet normal 0 1 0
    outer loop
      vertex -16 13.5 5
      vertex -14 13.5 3
      vertex -16 13.5 3
    endloop
  endfacet
  facet normal 0 1 0
    outer loop
      vertex -26 13.5 3
      vertex -24 13.5 5
      vertex -24 13.5 3
    endloop
  endfacet
  facet normal 0 1 0
    outer loop
      vertex -24 13.5 5
      vertex -26 13.5 3
      vertex -31 13.5 5
    endloop
  endfacet
  facet normal 0 1 0
    outer loop
      vertex -31 13.5 -5
      vertex -26 13.5 3
      vertex -26 13.5 -5
    endloop
  endfacet
  facet normal 0 1 0
    outer loop
      vertex -26 13.5 3
      vertex -31 13.5 -5
      vertex -31 13.5 5
    endloop
  endfacet
  facet normal 1 -0 0
    outer loop
      vertex -28.5 -9.6 5
      vertex -28.5 9.6 -5
      vertex -28.5 9.6 5
    endloop
  endfacet
  facet normal 1 0 0
    outer loop
      vertex -28.5 9.6 -5
      vertex -28.5 -9.6 5
      vertex -28.5 -9.6 -5
    endloop
  endfacet
  facet normal -1 0 0
    outer loop
      vertex -11.5 -9.6 -5
      vertex -11.5 9.6 5
      vertex -11.5 9.6 -5
    endloop
  endfacet
  facet normal -1 -0 0
    outer loop
      vertex -11.5 9.6 5
      vertex -11.5 -9.6 -5
      vertex -11.5 -9.6 5
    endloop
  endfacet
  facet normal 0 1 -0
    outer loop
      vertex -11.5 -9.6 -5
      vertex -28.5 -9.6 5
      vertex -11.5 -9.6 5
    endloop
  endfacet
  facet normal 0 1 0
    outer loop
      vertex -28.5 -9.6 5
      vertex -11.5 -9.6 -5
      vertex -28.5 -9.6 -5
    endloop
  endfacet
  facet normal 0 -1 0
    outer loop
      vertex -28.5 9.6 -5
      vertex -24 9.6 5
      vertex -28.5 9.6 5
    endloop
  endfacet
  facet normal 0 -1 -0
    outer loop
      vertex -24 9.6 5
      vertex -28.5 9.6 -5
      vertex -24 9.6 -5
    endloop
  endfacet
  facet normal 0 -1 0
    outer loop
      vertex -16 9.6 -5
      vertex -11.5 9.6 5
      vertex -16 9.6 5
    endloop
  endfacet
  facet normal 0 -1 -0
    outer loop
      vertex -11.5 9.6 5
      vertex -16 9.6 -5
      vertex -11.5 9.6 -5
    endloop
  endfacet
  facet normal 1 0 0
    outer loop
      vertex -24 13.5 5
      vertex -24 9.6 5
      vertex -24 13.5 3
    endloop
  endfacet
  facet normal 1 -0 0
    outer loop
      vertex -24 13.5 3
      vertex -24 30 -5
      vertex -24 30 3
    endloop
  endfacet
  facet normal 1 0 0
    outer loop
      vertex -24 13.5 3
      vertex -24 9.6 -5
      vertex -24 30 -5
    endloop
  endfacet
  facet normal 1 0 0
    outer loop
      vertex -24 9.6 -5
      vertex -24 13.5 3
      vertex -24 9.6 5
    endloop
  endfacet
  facet normal -1 0 0
    outer loop
      vertex -16 30 -5
      vertex -16 13.5 3
      vertex -16 30 3
    endloop
  endfacet
  facet normal -1 0 0
    outer loop
      vertex -16 9.6 -5
      vertex -16 13.5 3
      vertex -16 30 -5
    endloop
  endfacet
  facet normal -1 0 0
    outer loop
      vertex -16 9.6 5
      vertex -16 13.5 3
      vertex -16 9.6 -5
    endloop
  endfacet
  facet normal -1 0 0
    outer loop
      vertex -16 13.5 3
      vertex -16 9.6 5
      vertex -16 13.5 5
    endloop
  endfacet
  facet normal -1 0 0
    outer loop
      vertex -26 13.5 -5
      vertex -26 30 3
      vertex -26 30 -5
    endloop
  endfacet
  facet normal -1 -0 0
    outer loop
      vertex -26 30 3
      vertex -26 13.5 -5
      vertex -26 13.5 3
    endloop
  endfacet
  facet normal -0 0 1
    outer loop
      vertex -26 30 3
      vertex -24 13.5 3
      vertex -24 30 3
    endloop
  endfacet
  facet normal 0 0 1
    outer loop
      vertex -24 13.5 3
      vertex -26 30 3
      vertex -26 13.5 3
    endloop
  endfacet
  facet normal -0 0 1
    outer loop
      vertex -16 30 3
      vertex -14 13.5 3
      vertex -14 30 3
    endloop
  endfacet
  facet normal 0 0 1
    outer loop
      vertex -14 13.5 3
      vertex -16 30 3
      vertex -16 13.5 3
    endloop
  endfacet
  facet normal 1 -0 0
    outer loop
      vertex -14 13.5 3
      vertex -14 30 -5
      vertex -14 30 3
    endloop
  endfacet
  facet normal 1 0 0
    outer loop
      vertex -14 30 -5
      vertex -14 13.5 3
      vertex -14 13.5 -5
    endloop
  endfacet
  facet normal 0 1 -0
    outer loop
      vertex -14 30 -5
      vertex -16 30 3
      vertex -14 30 3
    endloop
  endfacet
  facet normal 0 1 0
    outer loop
      vertex -16 30 3
      vertex -14 30 -5
      vertex -16 30 -5
    endloop
  endfacet
  facet normal 0 1 -0
    outer loop
      vertex -24 30 -5
      vertex -26 30 3
      vertex -24 30 3
    endloop
  endfacet
  facet normal 0 1 0
    outer loop
      vertex -26 30 3
      vertex -24 30 -5
      vertex -26 30 -5
    endloop
  endfacet
endsolid OpenSCAD_Model
